<?xml version="1.0" encoding="utf-8"?>
<!-- Generator: Adobe Illustrator 27.3.1, SVG Export Plug-In . SVG Version: 6.00 Build 0)  -->
<svg version="1.1" id="Layer_2" xmlns="http://www.w3.org/2000/svg" xmlns:xlink="http://www.w3.org/1999/xlink" x="0px" y="0px"
	 viewBox="0 0 603.38 579.95" style="enable-background:new 0 0 603.38 579.95;" xml:space="preserve">
<style type="text/css">
	.st0{fill:#47614B;}
	.st1{fill:#D7E9C1;}
	.st2{fill:url(#SVGID_1_);}
	.st3{fill:#F4E49D;}
	.st4{opacity:0.08;}
	.st5{fill:#FBF9E3;}
</style>
<g>
	<path class="st0" d="M126.91,544.13c-13.04-0.68-33.34-1.02-60.88-1.02c-9.6,0-17.4,0.29-23.4,0.86c-1.46,0.1-2.53,0.16-3.21,0.16
		c-1.98,0-2.97-0.78-2.97-2.35c0-0.73,0.26-1.24,0.78-1.53c0.52-0.29,1.8-0.59,3.83-0.9c3.23-0.47,5.71-1.42,7.43-2.86
		c1.72-1.44,2.93-3.58,3.64-6.43c0.7-2.85,1.11-10.11,1.21-21.79c0.1-11.68,0.16-25.57,0.16-41.66c0-6.43-0.47-11.09-1.41-13.99
		c-0.94-2.9-2.28-5.02-4.03-6.35c-1.75-1.33-4.21-2.08-7.39-2.23c-2.24-0.1-3.37-0.94-3.37-2.5c0-1.56,1.28-2.35,3.83-2.35
		l25.98,0.78c4.02,0,9.62-0.2,16.82-0.61c2.61-0.12,4.38-0.17,5.32-0.17c2.19,0,3.29,0.76,3.29,2.27c0,0.83-0.35,1.42-1.06,1.76
		c-0.7,0.34-2.46,0.72-5.28,1.14c-3.5,0.47-5.96,1.36-7.39,2.67c-1.44,1.31-2.4,3.58-2.9,6.82c-0.5,3.24-0.74,10.5-0.74,21.79v47.58
		c0.05,7.32,0.7,11.67,1.96,13.05c1.25,1.38,3.63,2.08,7.12,2.08c8.56,0,14.93-0.67,19.1-2s8.16-3.74,11.94-7.24
		s7.84-9.36,12.17-17.61c0.88-1.67,1.79-2.5,2.73-2.5c1.4,0,2.1,0.76,2.1,2.27C132.31,514.65,130.51,525.61,126.91,544.13z"/>
	<path class="st0" d="M164.24,475.89c0.26,5.37,0.39,12.7,0.39,21.99c0,14.08,0.13,23.1,0.39,27.04c0.26,3.94,1.29,6.9,3.09,8.88
		s3.85,2.97,6.14,2.97c2.71,0,5.46-1.02,8.26-3.05c2.79-2.03,4.85-4.69,6.18-7.98c1.33-3.29,2-8.66,2-16.12l0.16-17.29
		c0-4.59-0.25-7.62-0.74-9.08c-0.5-1.46-2.18-2.24-5.05-2.35c-3.13-0.16-4.7-0.96-4.7-2.43c0-0.89,0.38-1.45,1.13-1.68
		c0.76-0.24,2.75-0.35,5.99-0.35c7.25,0,14.01-0.18,20.27-0.55c0.21,2.04,0.31,13.17,0.31,33.41c0,16.28,0.16,25.16,0.47,26.64
		c0.31,1.49,2.01,2.36,5.09,2.62c1.83,0.21,2.74,0.97,2.74,2.27c0,1.51-1.04,2.27-3.13,2.27c-0.42,0-1.07-0.03-1.96-0.08
		c-1.46-0.1-3.18-0.16-5.17-0.16c-6.94,0-10.77,0.03-11.5,0.08c-0.83,0.05-1.54,0.08-2.11,0.08c-0.99,0-1.6-0.17-1.84-0.51
		c-0.23-0.34-0.35-1.34-0.35-3.01c0-2.71,0.18-5.45,0.55-8.22c-3.6,4.38-7.4,7.67-11.39,9.86c-3.99,2.19-8.18,3.29-12.56,3.29
		c-13.3,0-19.95-7.46-19.95-22.38v-24.18c0-8.35-0.3-13.24-0.9-14.67c-0.6-1.43-2.18-2.33-4.73-2.7c-2.3-0.31-3.44-0.99-3.44-2.03
		c0-1.41,1.02-2.11,3.05-2.11C154.9,476.36,162.68,476.2,164.24,475.89z"/>
	<path class="st0" d="M254.07,486.53c3.76-4.07,7.56-7.11,11.4-9.12c3.84-2.01,7.74-3.01,11.71-3.01c2.82,0,5.8,0.57,8.93,1.72
		c3.13,1.15,6.55,3.83,10.26,8.06c3.75-3.29,7.61-5.75,11.57-7.39c3.96-1.64,8.03-2.46,12.2-2.46c7.14,0,12.38,1.93,15.71,5.8
		c3.28,3.92,4.93,9.72,4.93,17.39L340.39,524c0,7.47,0.36,11.77,1.09,12.89c0.72,1.12,2.69,1.92,5.9,2.39
		c1.81,0.31,2.72,1.02,2.72,2.11c0,1.62-1.07,2.43-3.2,2.43c-0.36,0-0.89-0.03-1.56-0.09c-4.37-0.41-9.14-0.62-14.29-0.62
		c-2.81,0-6.2,0.15-10.15,0.44c-2.45,0.18-3.85,0.26-4.22,0.26c-2.6,0-3.9-0.73-3.9-2.19c0-1.3,0.86-2.06,2.58-2.27
		c2.97-0.42,4.8-0.94,5.48-1.57c0.68-0.63,1.2-3.04,1.57-7.25c0.36-4.21,0.55-11.3,0.55-21.27c0-9.14-0.24-15.41-0.7-18.8
		c-0.47-3.4-1.54-6-3.21-7.8c-1.67-1.8-3.76-2.7-6.26-2.7c-2.24,0-4.53,0.85-6.85,2.54c-2.32,1.7-4.71,4.26-7.16,7.71
		c-1.62,8.09-2.43,19.71-2.43,34.87c0,6.43,0.47,10.33,1.41,11.68c0.94,1.36,3.08,2.22,6.42,2.59c1.98,0.21,2.97,0.89,2.97,2.03
		c0,1.62-1.25,2.43-3.76,2.43c-0.57,0-2.58-0.12-6.03-0.35c-4.75-0.29-8.11-0.44-10.09-0.44c-3.39,0-7.41,0.2-12.05,0.61
		c-1.2,0.12-2.11,0.17-2.74,0.17c-2.3,0-3.44-0.76-3.44-2.27c0-1.36,1.12-2.11,3.37-2.27c2.97-0.21,4.85-1.87,5.63-4.98
		c0.78-3.11,1.17-13.99,1.17-32.64c0-7.68-0.68-12.97-2.03-15.87c-1.36-2.9-3.57-4.35-6.65-4.35c-5.32,0-9.52,2.82-12.6,8.45
		c-3.08,5.63-4.62,16.53-4.62,32.68c0,7.58,0.48,12.22,1.45,13.92c0.96,1.7,2.78,2.63,5.44,2.78c1.98,0.1,2.97,0.78,2.97,2.03
		c0,1.67-1.07,2.5-3.21,2.5c-0.42,0-1.15-0.09-2.19-0.26c-2.71-0.35-7.36-0.52-13.93-0.52c-5.84,0-10.36,0.2-13.54,0.61
		c-1.25,0.12-2.19,0.17-2.82,0.17c-1.72,0-2.58-0.76-2.58-2.27c0-1.41,0.96-2.16,2.9-2.27c3.13-0.16,5.06-0.71,5.79-1.64
		c0.73-0.94,1.28-3.57,1.64-7.88c0.36-4.31,0.55-12.42,0.55-24.33c0-9.3-0.12-15.12-0.35-17.47c-0.23-2.35-1.09-4.15-2.58-5.41
		c-1.49-1.25-3.53-1.91-6.14-1.96c-2.14-0.05-3.21-0.76-3.21-2.11s1.07-2.09,3.21-2.19c2.76-0.16,6.86-0.51,12.29-1.06
		s10.12-0.82,14.09-0.82c0.63,1.51,0.94,4.02,0.94,7.51C254,482.8,254.02,484.34,254.07,486.53z"/>
	<path class="st0" d="M380.61,507.43c-0.05,1.51-0.08,2.61-0.08,3.29c0,7.41,1.81,13.68,5.44,18.82c3.62,5.14,8.52,7.71,14.67,7.71
		c6.31,0,12.52-2.74,18.62-8.22c1.25-1.1,2.14-1.64,2.66-1.64c1.36,0,2.04,0.73,2.04,2.19c0,1.15-1.57,3.21-4.7,6.18
		s-6.96,5.22-11.5,6.73c-4.54,1.51-9.23,2.27-14.09,2.27c-10.64,0-18.98-3.25-25-9.74c-6.03-6.5-9.04-14.15-9.04-22.97
		c0-10.59,3.46-19.47,10.37-26.64c6.91-7.17,15.53-10.76,25.86-10.76c9.7,0,17.1,3.26,22.18,9.78c5.09,6.52,7.63,12.73,7.63,18.62
		c0,1.88-0.5,3-1.49,3.37c-0.99,0.37-4.2,0.55-9.62,0.55L380.61,507.43z M381.08,501.71c7.72,0.11,12.18,0.16,13.38,0.16
		c5.89,0,9.51-0.42,10.84-1.25c1.33-0.83,2-2.53,2-5.09c0-4.28-1.23-8.06-3.68-11.35c-2.45-3.29-5.37-4.93-8.76-4.93
		C386.82,479.25,382.22,486.74,381.08,501.71z"/>
	<path class="st0" d="M460.5,490.13c2.61-5.27,5.61-9.21,9-11.82c3.39-2.61,7.17-3.91,11.35-3.91c3.96,0,7.13,1.15,9.51,3.44
		c2.37,2.3,3.56,5.16,3.56,8.61c0,2.71-0.85,5.02-2.54,6.92c-1.7,1.91-3.77,2.86-6.22,2.86c-1.83,0-3.34-0.47-4.54-1.41
		c-1.2-0.94-2.48-2.61-3.83-5.01c-1.88-3.44-3.52-5.16-4.93-5.16c-1.93,0-4.12,1.95-6.57,5.86c-2.45,3.91-3.68,11.49-3.68,22.74
		c0,14.22,0.48,22.13,1.45,23.72c0.96,1.59,3.09,2.38,6.38,2.38c2.87,0,4.3,0.78,4.3,2.35c0,1.46-1.41,2.19-4.23,2.19
		c-1.57,0-3.83-0.14-6.81-0.43c-2.71-0.24-5.27-0.36-7.67-0.36c-5.17,0-10.28,0.18-15.34,0.55c-2.14,0.16-3.39,0.23-3.76,0.23
		c-2.19,0-3.29-0.82-3.29-2.47c0-1.43,1.28-2.2,3.83-2.31c2.5-0.1,4.25-0.69,5.24-1.76c0.99-1.07,1.49-3.4,1.49-6.99l0.31-19.54
		c0-3.96-0.16-8.88-0.47-14.77c-0.31-5.89-0.6-9.39-0.86-10.51c-0.26-1.12-0.93-2.12-2-3.01c-1.07-0.88-2.52-1.41-4.34-1.56
		c-1.88-0.21-3.07-0.46-3.56-0.74c-0.5-0.29-0.74-0.87-0.74-1.76c0-1.41,1.3-2.14,3.91-2.19c4.8-0.05,12.96-0.68,24.49-1.88
		L460.5,490.13z"/>
	<path class="st0" d="M535.7,535.67c-3.24,3.08-6.5,5.39-9.78,6.92c-3.29,1.54-6.6,2.31-9.94,2.31c-5.32,0-9.43-1.61-12.32-4.82
		c-2.9-3.21-4.34-7.12-4.34-11.72c0-3.55,0.87-6.73,2.62-9.53c1.74-2.79,3.9-4.96,6.48-6.51c2.58-1.54,6.83-3.38,12.77-5.53
		c5-1.78,8.34-3.17,10.03-4.19c1.69-1.02,3.11-2.51,4.26-4.46c1.14-1.96,1.72-4.49,1.72-7.61c0-3.43-0.86-6.16-2.57-8.21
		c-1.71-2.05-4.08-3.08-7.09-3.08c-2.6,0-4.44,0.65-5.53,1.95c-1.09,1.35-1.92,3.51-2.49,6.47c-1.2,5.92-4.41,8.88-9.62,8.88
		c-2.14,0-3.96-0.63-5.48-1.88c-1.51-1.25-2.27-3.05-2.27-5.4c0-5.01,2.73-8.75,8.18-11.23c5.45-2.48,11.96-3.72,19.52-3.72
		c6.52,0,11.83,0.99,15.92,2.97c4.09,1.98,6.72,4.28,7.86,6.89c1.15,2.61,1.72,6.68,1.72,12.21l-0.16,18.55
		c0,9.76,0.33,16.02,0.98,18.78c0.65,2.77,2.05,4.15,4.19,4.15c0.31,0,0.73-0.03,1.25-0.08c1.04-0.1,1.75-0.16,2.11-0.16
		c2.14,0,3.21,0.6,3.21,1.8c0,0.78-0.44,1.45-1.33,2c-0.89,0.55-3.56,1.24-8.02,2.07c-4.46,0.83-8.49,1.25-12.09,1.25
		s-6.06-0.69-7.39-2.06C536.76,541.33,535.96,538.98,535.7,535.67z M536.72,504.3c-1.25,1.52-4.25,3.53-9,6.04
		c-4.33,2.3-7.23,4.34-8.69,6.12c-1.46,1.83-2.19,4.47-2.19,7.92c0,3.66,0.77,6.45,2.31,8.35c1.54,1.91,3.43,2.86,5.67,2.86
		c3.03,0,5.84-1.4,8.45-4.2c2.61-2.8,3.91-7.73,3.91-14.79C537.19,514.42,537.03,510.31,536.72,504.3z"/>
</g>
<g>
	<path class="st1" d="M227.86,331.22c0,0-2.31-76.45,61.55-126.55c64.17-50.35,108.85-59.01,166.78-59.01
		c0,0-40.17,17.5-41.08,59.17v126.39H227.86z"/>
	<polygon class="st0" points="288.55,331.31 288.55,78.9 147.19,35.04 147.19,331.31 147.19,394.95 449.35,394.95 449.35,331.31 	
		"/>
	<rect x="189.69" y="176.26" class="st1" width="31.3" height="154.96"/>
	<linearGradient id="SVGID_1_" gradientUnits="userSpaceOnUse" x1="253.0524" y1="176.2607" x2="253.0524" y2="331.2206">
		<stop  offset="0" style="stop-color:#F4E49D"/>
		<stop  offset="0.3313" style="stop-color:#D7E9C1"/>
	</linearGradient>
	<rect x="227.86" y="176.26" class="st2" width="50.38" height="154.96"/>
	<path class="st3" d="M278.24,85v83.78h-50.38v-68.69c0,0,11.46-6.88,22.61-10.45C261.36,86.16,278.24,85,278.24,85z"/>
	<path class="st3" d="M220.99,106.19v62.59h-31.3c0,0-1.33-26.56,13.71-45.97C212.57,110.98,220.99,106.19,220.99,106.19z"/>
	<path class="st4" d="M220.99,106.19v62.59h-31.3c0,0-1.33-26.56,13.71-45.97C212.57,110.98,220.99,106.19,220.99,106.19z"/>
	<polygon class="st4" points="189.69,176.26 220.99,176.26 220.99,191.09 189.69,231.8 	"/>
	<path class="st4" d="M278.24,85v31.63l-40.1,52.15h-10.28v-68.69c0,0,11.46-6.88,22.61-10.45C261.36,86.16,278.24,85,278.24,85z"/>
	<polygon class="st4" points="232.39,176.26 227.86,182.15 227.86,176.26 	"/>
	<polygon class="st1" points="268.89,236.7 272.88,222.44 290.76,205.13 297.03,214.99 294.56,231.8 	"/>
	<path class="st5" d="M232.39,331.22c0,0-1.56-47.52,16.98-70.04s40.73-27.48,90.06-26.16v-66.24l-8.94,5.32v50.33
		c0,0-39.73-0.99-57.61,10.26c0,0,12.47-29.18,42.64-48.95c0,0-66.45,35.05-87.65,99.94v45.54H232.39z"/>
</g>
</svg>
