<?xml version="1.0" encoding="utf-8"?>
<!-- Generator: Adobe Illustrator 27.3.1, SVG Export Plug-In . SVG Version: 6.00 Build 0)  -->
<svg version="1.1" id="Layer_2" xmlns="http://www.w3.org/2000/svg" xmlns:xlink="http://www.w3.org/1999/xlink" x="0px" y="0px"
	 viewBox="0 0 360 360" style="enable-background:new 0 0 360 360;" xml:space="preserve">
<style type="text/css">
	.st0{fill:#D7E9C1;}
	.st1{fill:#47614B;}
	.st2{fill:url(#SVGID_1_);}
	.st3{fill:#F4E49D;}
	.st4{opacity:0.08;}
	.st5{fill:#FBF9E3;}
</style>
<g>
	<path class="st0" d="M106.17,296.22c0,0-2.31-76.45,61.55-126.55c64.17-50.35,108.85-59.01,166.78-59.01
		c0,0-40.17,17.5-41.08,59.17v126.39H106.17z"/>
	<polygon class="st1" points="166.86,296.31 166.86,43.9 25.5,0.05 25.5,296.31 25.5,359.95 327.66,359.95 327.66,296.31 	"/>
	<rect x="68" y="141.27" class="st0" width="31.3" height="154.96"/>
	<linearGradient id="SVGID_1_" gradientUnits="userSpaceOnUse" x1="131.3616" y1="141.2658" x2="131.3616" y2="296.2258">
		<stop  offset="0" style="stop-color:#F4E49D"/>
		<stop  offset="0.3313" style="stop-color:#D7E9C1"/>
	</linearGradient>
	<rect x="106.17" y="141.27" class="st2" width="50.38" height="154.96"/>
	<path class="st3" d="M156.55,50.01v83.78h-50.38V65.1c0,0,11.46-6.88,22.61-10.45C139.67,51.17,156.55,50.01,156.55,50.01z"/>
	<path class="st3" d="M99.3,71.2v62.59H68c0,0-1.33-26.56,13.71-45.97C90.88,75.99,99.3,71.2,99.3,71.2z"/>
	<path class="st4" d="M99.3,71.2v62.59H68c0,0-1.33-26.56,13.71-45.97C90.88,75.99,99.3,71.2,99.3,71.2z"/>
	<polygon class="st4" points="68,141.27 99.3,141.27 99.3,156.1 68,196.81 	"/>
	<path class="st4" d="M156.55,50.01v31.63l-40.1,52.15h-10.28V65.1c0,0,11.46-6.88,22.61-10.45
		C139.67,51.17,156.55,50.01,156.55,50.01z"/>
	<polygon class="st4" points="110.7,141.27 106.17,147.16 106.17,141.27 	"/>
	<polygon class="st0" points="147.2,201.7 151.19,187.44 169.07,170.14 175.34,180 172.87,196.81 	"/>
	<path class="st5" d="M110.7,296.22c0,0-1.56-47.52,16.98-70.04s40.73-27.48,90.06-26.16v-66.24l-8.94,5.32v50.33
		c0,0-39.73-0.99-57.61,10.26c0,0,12.47-29.18,42.64-48.95c0,0-66.45,35.05-87.65,99.94v45.54H110.7z"/>
</g>
</svg>
