<svg xmlns="http://www.w3.org/2000/svg" viewBox="0 0 640 480">
  <defs>
    <linearGradient id="bg" x1="0" y1="0" x2="1" y2="1">
      <stop offset="0" stop-color="#f7f1e9"/>
      <stop offset="1" stop-color="#dcebea"/>
    </linearGradient>
    <linearGradient id="glass" x1="0" y1="0" x2="1" y2="1">
      <stop offset="0" stop-color="#ffffff"/>
      <stop offset="1" stop-color="#a7ccd2"/>
    </linearGradient>
  </defs>
  <rect width="640" height="480" rx="38" fill="url(#bg)"/>
  <rect x="210" y="76" width="284" height="304" rx="28" fill="#213330"/>
  <rect x="238" y="106" width="228" height="244" rx="20" fill="url(#glass)"/>
  <g fill="#2b6256" opacity=".42">
    <circle cx="288" cy="154" r="9"/>
    <circle cx="356" cy="154" r="9"/>
    <circle cx="424" cy="154" r="9"/>
    <circle cx="322" cy="214" r="9"/>
    <circle cx="390" cy="214" r="9"/>
    <circle cx="288" cy="274" r="9"/>
    <circle cx="356" cy="274" r="9"/>
    <circle cx="424" cy="274" r="9"/>
  </g>
  <path d="M116 256c54-54 107-78 158-72" fill="none" stroke="#2b6256" stroke-width="13" stroke-linecap="round"/>
  <path d="M150 226c29-42 68-57 116-46-38 16-54 42-48 80-24-20-47-31-68-34z" fill="#2b6256"/>
  <path d="M142 226l-42-42M158 248l-54 18" stroke="#2b6256" stroke-width="10" stroke-linecap="round"/>
  <path d="M254 122 450 338" stroke="#ffffff" stroke-width="12" opacity=".23"/>
  <path d="M224 402h244" stroke="#d7b46a" stroke-width="12" stroke-linecap="round"/>
</svg>
