<svg xmlns="http://www.w3.org/2000/svg" viewBox="0 0 640 480">
  <defs>
    <linearGradient id="bg" x1="0" y1="0" x2="1" y2="1">
      <stop offset="0" stop-color="#fff3df"/>
      <stop offset="1" stop-color="#dce8ec"/>
    </linearGradient>
    <linearGradient id="glass" x1="0" y1="0" x2="1" y2="1">
      <stop offset="0" stop-color="#fffdfa"/>
      <stop offset="1" stop-color="#9ac2cb"/>
    </linearGradient>
  </defs>
  <rect width="640" height="480" rx="38" fill="url(#bg)"/>
  <rect x="176" y="74" width="288" height="314" rx="30" fill="#213330"/>
  <rect x="204" y="104" width="232" height="254" rx="22" fill="url(#glass)"/>
  <path d="M148 154c-34 44-34 90 0 138M492 154c34 44 34 90 0 138" fill="none" stroke="#ffbd29" stroke-width="13" stroke-linecap="round"/>
  <path d="M122 188c-18 26-18 50 0 76M518 188c18 26 18 50 0 76" fill="none" stroke="#2b6256" stroke-width="10" stroke-linecap="round" opacity=".72"/>
  <path d="M236 168h168M236 222h168M236 276h168" stroke="#ffffff" stroke-width="12" stroke-linecap="round" opacity=".4"/>
  <path d="M204 104 436 358" stroke="#ffffff" stroke-width="12" opacity=".22"/>
  <circle cx="320" cy="410" r="20" fill="#2b6256"/>
  <path d="M280 410h-66M426 410h-66" stroke="#2b6256" stroke-width="8" stroke-linecap="round" opacity=".55"/>
</svg>
