<svg xmlns="http://www.w3.org/2000/svg" viewBox="0 0 640 480">
  <defs>
    <linearGradient id="wall" x1="0" y1="0" x2="1" y2="1">
      <stop offset="0" stop-color="#fbf7ef"/>
      <stop offset="1" stop-color="#e7ddd0"/>
    </linearGradient>
    <linearGradient id="film" x1="0" y1="0" x2="1" y2="1">
      <stop offset="0" stop-color="#f8fcff"/>
      <stop offset="1" stop-color="#a9c7d0"/>
    </linearGradient>
  </defs>
  <rect width="640" height="480" rx="38" fill="url(#wall)"/>
  <rect x="118" y="86" width="320" height="240" rx="26" fill="#243532"/>
  <rect x="142" y="112" width="126" height="188" rx="16" fill="url(#film)"/>
  <rect x="288" y="112" width="126" height="188" rx="16" fill="#8eb1bc"/>
  <path d="M458 124c34 30 52 70 52 120s-18 90-52 120" fill="none" stroke="#ffbd29" stroke-width="14" stroke-linecap="round" opacity=".55"/>
  <path d="M474 174c18 18 27 41 27 70s-9 52-27 70" fill="none" stroke="#ffbd29" stroke-width="10" stroke-linecap="round"/>
  <rect x="205" y="346" width="228" height="42" rx="13" fill="#2b6256"/>
  <rect x="238" y="362" width="164" height="10" rx="5" fill="#fffdf8" opacity=".72"/>
  <path d="M132 128 408 304" stroke="#ffffff" stroke-width="14" opacity=".25"/>
  <path d="M286 112v188" stroke="#ffffff" stroke-width="6" opacity=".35"/>
</svg>
