<svg xmlns="http://www.w3.org/2000/svg" viewBox="0 0 640 480">
  <defs>
    <linearGradient id="bg" x1="0" y1="0" x2="1" y2="1">
      <stop offset="0" stop-color="#fff8e5"/>
      <stop offset="1" stop-color="#e5f0ed"/>
    </linearGradient>
    <linearGradient id="glass" x1="0" y1="0" x2="1" y2="1">
      <stop offset="0" stop-color="#ffffff"/>
      <stop offset="1" stop-color="#b8d8df"/>
    </linearGradient>
  </defs>
  <rect width="640" height="480" rx="38" fill="url(#bg)"/>
  <circle cx="118" cy="108" r="42" fill="#ffbd29"/>
  <g stroke="#ffbd29" stroke-width="9" stroke-linecap="round" opacity=".45">
    <path d="M178 154 266 220M166 88h94M156 122l98 28"/>
  </g>
  <rect x="258" y="78" width="248" height="312" rx="26" fill="#223330"/>
  <rect x="288" y="110" width="188" height="248" rx="18" fill="url(#glass)"/>
  <path d="M282 86c16 80 16 214 0 294" fill="none" stroke="#2b6256" stroke-width="16" stroke-linecap="round"/>
  <path d="M220 198c18 22 37 35 58 39" fill="none" stroke="#2b6256" stroke-width="11" stroke-linecap="round"/>
  <path d="M214 150c20 19 42 31 68 35" fill="none" stroke="#2b6256" stroke-width="8" stroke-linecap="round" opacity=".7"/>
  <path d="M336 148 444 256" stroke="#ffffff" stroke-width="14" opacity=".3"/>
  <path d="M158 332c24-38 52-40 84-6 31 34 60 34 86 0" fill="none" stroke="#d7b46a" stroke-width="10" stroke-linecap="round"/>
</svg>
