<svg xmlns="http://www.w3.org/2000/svg" viewBox="0 0 640 480">
  <defs>
    <linearGradient id="bg" x1="0" y1="0" x2="1" y2="1">
      <stop offset="0" stop-color="#f8f1e7"/>
      <stop offset="1" stop-color="#dce8e9"/>
    </linearGradient>
    <linearGradient id="glass" x1="0" y1="0" x2="1" y2="1">
      <stop offset="0" stop-color="#f8fcff"/>
      <stop offset="1" stop-color="#7baeb8"/>
    </linearGradient>
  </defs>
  <rect width="640" height="480" rx="38" fill="url(#bg)"/>
  <rect x="134" y="72" width="372" height="312" rx="30" fill="#1f312f"/>
  <rect x="164" y="104" width="312" height="246" rx="22" fill="url(#glass)"/>
  <path d="M320 150l92 42v55c0 58-42 92-92 116-50-24-92-58-92-116v-55z" fill="#2b6256" opacity=".88"/>
  <rect x="278" y="234" width="84" height="70" rx="14" fill="#fffdf8"/>
  <path d="M292 234v-22c0-24 14-40 28-40s28 16 28 40v22" fill="none" stroke="#fffdf8" stroke-width="16" stroke-linecap="round"/>
  <path d="M320 258v22" stroke="#2b6256" stroke-width="10" stroke-linecap="round"/>
  <path d="M178 116 458 338" stroke="#ffffff" stroke-width="12" opacity=".22"/>
  <path d="M486 128l42-32M496 166l54-4M504 202l44 28" stroke="#8f352e" stroke-width="9" stroke-linecap="round" opacity=".75"/>
</svg>
