<svg xmlns="http://www.w3.org/2000/svg" viewBox="0 0 640 480">
  <defs>
    <linearGradient id="bg" x1="0" y1="0" x2="1" y2="1">
      <stop offset="0" stop-color="#f7f1e9"/>
      <stop offset="1" stop-color="#dde8e5"/>
    </linearGradient>
    <linearGradient id="door" x1="0" y1="0" x2="1" y2="1">
      <stop offset="0" stop-color="#f6efe4"/>
      <stop offset="1" stop-color="#b9915a"/>
    </linearGradient>
    <linearGradient id="frame" x1="0" y1="0" x2="1" y2="1">
      <stop offset="0" stop-color="#fbfbf6"/>
      <stop offset="1" stop-color="#c9d6d3"/>
    </linearGradient>
  </defs>
  <rect width="640" height="480" rx="38" fill="url(#bg)"/>
  <rect x="64" y="74" width="210" height="288" rx="22" fill="#223330" opacity=".92"/>
  <rect x="92" y="104" width="154" height="226" rx="14" fill="url(#frame)"/>
  <path d="M169 104v226M92 206h154" stroke="#ffffff" stroke-width="8" opacity=".55"/>
  <path d="M82 358h174" stroke="#2b6256" stroke-width="12" stroke-linecap="round" opacity=".24"/>
  <rect x="310" y="66" width="122" height="304" rx="18" fill="url(#door)"/>
  <path d="M330 92h82M330 134h82M330 176h82M330 218h82M330 260h82" stroke="#ffffff" stroke-width="5" opacity=".32"/>
  <circle cx="407" cy="226" r="7" fill="#2b6256"/>
  <rect x="470" y="114" width="106" height="214" rx="18" fill="#ffffff" opacity=".82"/>
  <path d="M470 180h106M523 114v214" stroke="#2b6256" stroke-width="7" opacity=".25"/>
  <rect x="488" y="344" width="70" height="18" rx="9" fill="#2b6256" opacity=".22"/>
  <path d="M112 396h106M284 396h106M456 396h106" stroke="#d7b46a" stroke-width="12" stroke-linecap="round"/>
  <path d="M250 88c36 16 48 44 34 76" stroke="#d7b46a" stroke-width="9" stroke-linecap="round" fill="none" opacity=".72"/>
  <path d="m282 158-22-3 12-18" fill="none" stroke="#d7b46a" stroke-width="9" stroke-linecap="round" stroke-linejoin="round" opacity=".72"/>
</svg>
